# xmcd CD database file
#
# Track frame offsets:
#	150
#	20984
#	49176
#	74885
#	92449
#	120735
#	147509
#	162886
#	194902
#	242341
#	277932
#	301991
#
# Disc length: 4411 seconds
#
# Revision: 0
# Processed by: cddbd v1.5.2PL0 Copyright (c) Steve Scherf et al.
# Submitted via: CDex 1.51
#
DISCID=b311390c
DTITLE=The Modern Jazz Quartet - Introducing The Modern Jazz Quartet
DYEAR=2006
DGENRE=Jazz
TTITLE0=Django
TTITLE1=Vendome
TTITLE2=Bachianas Brasileiras
TTITLE3=Over The Rainbow
TTITLE4=Lonely Woman
TTITLE5=Summertime
TTITLE6=I Love You Porgy
TTITLE7=Night In Tunisia (With Sonny Rollins)
TTITLE8=Adagio From The Guitar Concerto De Aranjuez
TTITLE9=Blues In A Minor
TTITLE10=England's Carol
TTITLE11=Softly As In  A Morning Sunrise
EXTD=YEAR: 2006
EXTT0=
EXTT1=
EXTT2=
EXTT3=
EXTT4=
EXTT5=
EXTT6=
EXTT7=
EXTT8=
EXTT9=
EXTT10=
EXTT11=
PLAYORDER=
